name C:\Users\u0150099\Documents\master_thesis\3dpredictsim\Results\debug\Fal_s1_mtjc2_sc_cspx10_oy2_ATx70_Fpsl10_MTc2_MTPm_k1_d01_MTJm_nl_MG_exp5_table_d01_PF_Natali2010_ls146_FDB2_lTs125_Fpsl10_ig21_wAk1e+04_wa2e+03_wpMnD1e+03.mot
datacolumns 130
datarows 4
range 1.11238225 1.14575372
endheader
time	pelvis_tilt	pelvis_list	pelvis_rotation	pelvis_tx	pelvis_ty	pelvis_tz	hip_flexion_l	hip_adduction_l	hip_rotation_l	hip_flexion_r	hip_adduction_r	hip_rotation_r	knee_angle_l	knee_angle_r	ankle_angle_l	ankle_angle_r	subtalar_angle_l	subtalar_angle_r	mtj_angle_l	mtj_angle_r	mtp_angle_l	mtp_angle_r	lumbar_extension	lumbar_bending	lumbar_rotation	arm_flex_l	arm_add_l	arm_rot_l	arm_flex_r	arm_add_r	arm_rot_r	elbow_flex_l	elbow_flex_r	pro_sup_l	pro_sup_r	glut_med1_l/activation	glut_med2_l/activation	glut_med3_l/activation	glut_min1_l/activation	glut_min2_l/activation	glut_min3_l/activation	semimem_l/activation	semiten_l/activation	bifemlh_l/activation	bifemsh_l/activation	sar_l/activation	add_long_l/activation	add_brev_l/activation	add_mag1_l/activation	add_mag2_l/activation	add_mag3_l/activation	tfl_l/activation	pect_l/activation	grac_l/activation	glut_max1_l/activation	glut_max2_l/activation	glut_max3_l/activation	iliacus_l/activation	psoas_l/activation	quad_fem_l/activation	gem_l/activation	peri_l/activation	rect_fem_l/activation	vas_med_l/activation	vas_int_l/activation	vas_lat_l/activation	med_gas_l/activation	lat_gas_l/activation	soleus_l/activation	tib_post_l/activation	flex_dig_l/activation	flex_hal_l/activation	tib_ant_l/activation	per_brev_l/activation	per_long_l/activation	per_tert_l/activation	ext_dig_l/activation	ext_hal_l/activation	FDB_l/activation	ercspn_l/activation	intobl_l/activation	extobl_l/activation	glut_med1_r/activation	glut_med2_r/activation	glut_med3_r/activation	glut_min1_r/activation	glut_min2_r/activation	glut_min3_r/activation	semimem_r/activation	semiten_r/activation	bifemlh_r/activation	bifemsh_r/activation	sar_r/activation	add_long_r/activation	add_brev_r/activation	add_mag1_r/activation	add_mag2_r/activation	add_mag3_r/activation	tfl_r/activation	pect_r/activation	grac_r/activation	glut_max1_r/activation	glut_max2_r/activation	glut_max3_r/activation	iliacus_r/activation	psoas_r/activation	quad_fem_r/activation	gem_r/activation	peri_r/activation	rect_fem_r/activation	vas_med_r/activation	vas_int_r/activation	vas_lat_r/activation	med_gas_r/activation	lat_gas_r/activation	soleus_r/activation	tib_post_r/activation	flex_dig_r/activation	flex_hal_r/activation	tib_ant_r/activation	per_brev_r/activation	per_long_r/activation	per_tert_r/activation	ext_dig_r/activation	ext_hal_r/activation	FDB_r/activation	ercspn_r/activation	intobl_r/activation	extobl_r/activation	
          1.11238225	         -2.84500742	         -2.26030992	          7.10407883	          1.47946839	          0.91030456	         -0.00763113	        -20.00405398	          0.12997853	         12.48561940	         26.02259365	          2.44853427	         -2.99744099	         -6.14286562	         -4.83184705	         -2.20516128	          0.04839408	         -2.25903550	         -2.10484843	          0.25790151	         -0.37347623	         22.49404704	         -4.21408323	         -3.69126098	          1.10853890	         -2.78165139	          3.79575592	        -13.70250108	         19.37721277	         -0.34818774	        -13.45086795	         15.72077756	         47.89154766	         11.52993457	         86.51662706	         86.51662706	          0.49028687	          0.07638011	          0.05000012	          0.63855854	          0.26524117	          0.08323614	          0.05000205	          0.05000027	          0.05000020	          0.09477785	          0.14234720	          0.05000016	          0.05000021	          0.05000029	          0.05000093	          0.05000093	          0.55549618	          0.05000071	          0.05000039	          0.05000260	          0.05000135	          0.05000088	          0.60183717	          0.69688155	          0.05000010	          0.05000067	          0.05000017	          0.32996281	          0.05928974	          0.06469030	          0.05176238	          0.53240006	          0.61980427	          0.36715453	          0.43358239	          0.43618163	          0.50125686	          0.05000004	          0.07025843	          0.15420546	          0.05000027	          0.05000012	          0.10064873	          0.80172828	          0.05000007	          0.05000002	          0.05000006	          0.05817069	          0.05000115	          0.05000241	          0.05000072	          0.05000095	          0.05000244	          0.30106527	          0.07026006	          0.28882655	          0.07027067	          0.05000178	          0.13194506	          0.16582118	          0.16523570	          0.14441405	          0.15763684	          0.05002315	          0.05429070	          0.15166376	          0.05001102	          0.05013051	          0.17885501	          0.11702666	          0.11702644	          0.09851901	          0.05000105	          0.05000041	          0.05000034	          0.05000226	          0.05000218	          0.05000204	          0.08670757	          0.05926987	          0.05150087	          0.05000067	          0.06920300	          0.05000310	          0.26785879	          0.08355410	          0.12966351	          0.17691342	          0.57058518	          0.26910876	          0.34785980	          0.07025730	          0.11767885	          0.05415483	
          1.12350607	         -2.87877976	         -2.35776888	          7.50532170	          1.49699795	          0.90896478	         -0.00796386	        -20.05296973	         -0.23093605	         12.24747783	         26.04732199	          2.83821813	         -2.75565732	         -7.68388741	         -5.75577278	         -2.69067964	         -0.35063905	         -1.18732820	         -2.29342030	         -1.01745360	          0.10704872	         25.22727013	         -5.19641226	         -3.45734749	          1.31978054	         -2.89203690	          3.32158479	        -13.64860682	         19.38587053	         -1.18626685	        -13.44989879	         15.90820709	         50.49662767	         10.15216732	         86.51662706	         86.51662706	          0.41360581	          0.06443425	          0.05000006	          0.53868768	          0.22375736	          0.07021805	          0.05000299	          0.05000034	          0.05000025	          0.07995455	          0.12008437	          0.05000040	          0.05000053	          0.05000046	          0.05000119	          0.05000113	          0.49372002	          0.05002889	          0.05000053	          0.05000132	          0.05000082	          0.05000064	          0.50770955	          0.66080543	          0.05000009	          0.05000049	          0.05000019	          0.39263516	          0.09853087	          0.10931850	          0.08148578	          0.47964720	          0.56779692	          0.33414784	          0.38527549	          0.48460138	          0.48467571	          0.05000003	          0.05927007	          0.13008762	          0.05000019	          0.05000008	          0.08490726	          0.67633790	          0.05000015	          0.05000005	          0.05000013	          0.05000368	          0.05000293	          0.05000037	          0.05926982	          0.05926937	          0.05000319	          0.25397850	          0.05927156	          0.24738296	          0.05928067	          0.05001044	          0.14932012	          0.15133483	          0.13939862	          0.12235307	          0.17626773	          0.05000038	          0.08370536	          0.14024552	          0.05000081	          0.05000057	          0.22881064	          0.09872407	          0.09872379	          0.26283481	          0.13871057	          0.05927002	          0.05000012	          0.05000035	          0.05000033	          0.05000034	          0.07314663	          0.05000057	          0.05000002	          0.05000045	          0.09775165	          0.08314012	          0.28423810	          0.12508194	          0.13847918	          0.24819215	          0.59983804	          0.34465750	          0.30409597	          0.05926906	          0.09927380	          0.05000053	
          1.13462989	         -2.90380440	         -2.48000856	          7.88271869	          1.51510164	          0.90786653	         -0.00824817	        -20.07206882	         -0.65821387	         11.87954011	         26.02693623	          3.22265525	         -2.50220648	         -9.20532495	         -7.28795225	         -3.48610323	         -1.09800089	         -0.00566484	         -2.47807714	         -2.53572530	          0.76719219	         28.34124162	         -6.02663606	         -3.17847481	          1.55377053	         -2.99446494	          2.71963735	        -13.59853099	         19.36574228	         -2.17984774	        -13.45846180	         16.16099563	         53.11740395	          9.05195856	         86.51662706	         86.51662706	          0.34891763	          0.05435686	          0.05000056	          0.45443663	          0.18876164	          0.05923626	          0.05000304	          0.05000043	          0.05000048	          0.06744963	          0.10130337	          0.08069446	          0.05006883	          0.05925341	          0.05018996	          0.05927008	          0.46918648	          0.05001082	          0.05000151	          0.05001784	          0.05001005	          0.05002432	          0.42830350	          0.65038541	          0.05000105	          0.05000755	          0.05000069	          0.36556453	          0.13872374	          0.13872380	          0.11550597	          0.40463017	          0.48504079	          0.28188686	          0.32501817	          0.45356315	          0.40887287	          0.05000003	          0.05000029	          0.10974182	          0.05000010	          0.05000005	          0.07162776	          0.57055821	          0.05000059	          0.06162041	          0.05000006	          0.05000007	          0.05000011	          0.05000044	          0.05000018	          0.05000017	          0.05000022	          0.21425608	          0.05000155	          0.20869209	          0.05000925	          0.07026263	          0.13921411	          0.17407431	          0.17776472	          0.10326710	          0.19867393	          0.05000366	          0.07179382	          0.11832005	          0.05000078	          0.12015936	          0.25087506	          0.08328381	          0.08328364	          0.39699274	          0.11701656	          0.05000071	          0.05926988	          0.05926922	          0.05926928	          0.05926916	          0.06994462	          0.07025840	          0.06131785	          0.05000154	          0.08246393	          0.07025985	          0.32845324	          0.14744538	          0.12126185	          0.36556196	          0.63034327	          0.29075699	          0.25653515	          0.05000011	          0.08374732	          0.05200500	
          1.14575372	         -2.91974142	         -2.65518164	          8.24796916	          1.53369870	          0.90702217	         -0.00853627	        -20.06021574	         -1.17918154	         11.41089804	         25.89798524	          3.55999857	         -2.12696708	        -10.67914930	         -9.01137523	         -4.63650909	         -1.94418383	          1.21674852	         -2.64204677	         -4.26934730	          1.27425164	         31.77517081	         -6.71981986	         -2.85806986	          1.84227987	         -3.09269469	          2.01003911	        -13.54358353	         19.33899558	         -3.31579951	        -13.48287819	         16.40959090	         55.73494409	          8.22411673	         86.51662706	         86.51662706	          0.29434689	          0.05000009	          0.05000005	          0.38336273	          0.15923934	          0.05000024	          0.05000253	          0.05000025	          0.05000019	          0.05690053	          0.08546009	          0.07569313	          0.05000443	          0.05000094	          0.05000196	          0.05000194	          0.49543596	          0.05926925	          0.05000056	          0.05000137	          0.05000090	          0.05000076	          0.37037100	          0.65534153	          0.05000010	          0.05000049	          0.05000013	          0.30839001	          0.11702734	          0.11702738	          0.09744084	          0.34134570	          0.40918013	          0.23779953	          0.27418509	          0.38262643	          0.34492503	          0.05000001	          0.05000035	          0.09257813	          0.05000010	          0.05000004	          0.06042518	          0.48132249	          0.07939187	          0.05198295	          0.05000064	          0.28529385	          0.24459101	          0.05451389	          0.14427616	          0.09284789	          0.08334002	          0.18074627	          0.08823114	          0.17605250	          0.07025874	          0.05927397	          0.11744103	          0.14684908	          0.14996240	          0.08711644	          0.23347967	          0.05000188	          0.06056609	          0.10692396	          0.21114996	          0.23383053	          0.29843630	          0.07025821	          0.07025807	          0.33490286	          0.09871533	          0.07025889	          0.05000008	          0.05000010	          0.05000009	          0.05000009	          0.05900524	          0.05926996	          0.05172769	          0.05000028	          0.06956670	          0.05927184	          0.36962647	          0.12446979	          0.14569149	          0.40040158	          0.70238347	          0.59276046	          0.47311472	          0.05000003	          0.08083453	          0.05000007	
